<svg xmlns="http://www.w3.org/2000/svg" width="512" height="511" viewBox="0 0 512 511" version="1.1"><path d="M 223.564 1.625 C 177.870 7.477, 131.882 27.149, 95 56.620 C 84.098 65.331, 65.331 84.098, 56.620 95 C 26.699 132.445, 7.290 178.241, 1.536 224.970 C -0.429 240.920, -0.439 269.756, 1.512 286.441 C 6.942 332.860, 26.599 379.430, 56.620 417 C 65.373 427.954, 84.150 446.718, 95 455.353 C 128.650 482.133, 165.437 499.128, 209.500 508.250 C 223.517 511.152, 277.249 512.001, 293.752 509.581 C 337.207 503.208, 381.549 483.708, 417 455.380 C 427.902 446.669, 446.669 427.902, 455.380 417 C 484.721 380.281, 505.608 331.372, 510.078 288.923 C 510.681 283.191, 511.586 277.719, 512.088 276.764 C 512.589 275.809, 512.964 265.459, 512.921 253.764 C 512.878 242.069, 512.566 233.175, 512.229 234 C 511.891 234.825, 511.041 230.441, 510.338 224.258 C 505.285 179.762, 485.013 132.085, 455.380 95 C 446.669 84.098, 427.902 65.331, 417 56.620 C 379.589 26.727, 333.716 7.284, 287.030 1.536 C 271.561 -0.369, 238.774 -0.323, 223.564 1.625 M 241.500 33.017 C 211.570 34.955, 184.181 42.350, 156.500 55.969 C 106.528 80.555, 65.574 126.208, 46.188 178.935 C 31.095 219.988, 28.545 266.573, 39.039 309.565 C 46.602 340.550, 61.862 371.206, 82.314 396.500 C 90.119 406.153, 106.901 422.870, 116.500 430.554 C 175.924 478.122, 255.893 492.021, 328.347 467.375 C 422.934 435.200, 485.174 342.340, 478.974 242.648 C 475.541 187.463, 452.840 137.032, 413.904 98.096 C 368.323 52.515, 305.667 28.864, 241.500 33.017 M 264.218 161.663 C 257.881 164.787, 254.876 172.156, 256.463 180.687 C 257.078 183.993, 260.842 188.187, 284.796 212.250 L 312.420 240 234.111 240 C 147.528 240, 151.482 239.712, 146.730 246.373 C 143.551 250.831, 143.551 261.169, 146.730 265.627 C 151.482 272.289, 147.526 272, 234.127 272 L 312.452 272 285.286 299.250 C 270.344 314.238, 257.643 327.767, 257.060 329.315 C 253.238 339.467, 259.051 350.392, 268.983 351.725 C 278.652 353.021, 276.961 354.374, 322.735 308.714 C 345.964 285.543, 365.651 265.147, 366.485 263.391 C 368.420 259.312, 368.425 252.697, 366.494 248.630 C 364.481 244.387, 282.274 162.400, 278.685 161.055 C 274.598 159.524, 267.996 159.801, 264.218 161.663 M 0.426 255.500 C 0.427 267.600, 0.571 272.413, 0.747 266.195 C 0.923 259.977, 0.922 250.077, 0.746 244.195 C 0.569 238.313, 0.425 243.400, 0.426 255.500" stroke="none" fill="#3c6cb4" fill-rule="evenodd"/></svg>